<svg width="150" height="40" viewBox="0 0 150 40" fill="none" xmlns="http://www.w3.org/2000/svg">
<path d="M12.0018 20.0314L21.6805 10.3686L27.2404 15.867V35.2452L12.0018 20.0314ZM25.3789 37.1039H2.63288V29.3852L10.1401 21.89L25.3789 37.1039ZM2.63288 25.6681V15.867L14.9366 3.70035L19.8102 8.51942L2.63288 25.6681ZM15.0297 0.0920143L14.9366 0.000183105L0.0391195 14.732L0 14.7707V39.7324H29.8735V14.7707L15.0297 0.0920143ZM130.826 34.0442C130.826 33.4463 130.368 33.1474 129.447 33.1474H127.857V35.0936H129.511C130.388 35.0936 130.826 34.7453 130.826 34.0442ZM130.688 31.8529C130.688 31.5683 130.585 31.3662 130.382 31.2446C130.178 31.1228 129.872 31.0631 129.465 31.0631H127.857V32.7311H129.412C129.866 32.7311 130.192 32.661 130.391 32.5208C130.589 32.3806 130.688 32.1579 130.688 31.8529ZM131.159 31.8168C131.159 32.125 131.082 32.3661 130.93 32.5413C130.777 32.7155 130.529 32.8373 130.184 32.9063V32.9371C130.576 32.9825 130.859 33.0948 131.035 33.2753C131.21 33.4567 131.297 33.7166 131.297 34.0545C131.297 34.5226 131.142 34.8844 130.832 35.1369C130.523 35.3894 130.07 35.5163 129.474 35.5163H127.413V30.6417H129.484C130.04 30.6417 130.459 30.7416 130.739 30.9415C131.018 31.1425 131.159 31.4342 131.159 31.8168ZM121.794 33.0722C121.794 33.7413 121.941 34.2638 122.236 34.6391C122.531 35.0143 122.948 35.2019 123.487 35.2019C124.026 35.2019 124.443 35.0143 124.737 34.6391C125.032 34.2638 125.181 33.7413 125.181 33.0722C125.181 32.399 125.032 31.8776 124.733 31.5064C124.435 31.1363 124.016 30.9508 123.477 30.9508C122.938 30.9508 122.523 31.1353 122.232 31.5043C121.938 31.8733 121.794 32.3971 121.794 33.0722ZM125.647 33.0722C125.647 33.8671 125.453 34.4875 125.067 34.9349C124.681 35.3822 124.148 35.605 123.469 35.605C123.041 35.605 122.663 35.5019 122.337 35.2957C122.011 35.0896 121.761 34.7937 121.587 34.4082C121.414 34.0227 121.327 33.5772 121.327 33.0722C121.327 32.2774 121.519 31.6569 121.906 31.2136C122.292 30.7696 122.822 30.548 123.495 30.548C124.167 30.548 124.693 30.7724 125.075 31.2218C125.455 31.6724 125.647 32.2888 125.647 33.0722ZM117.8 35.2112C118.3 35.2112 118.688 35.0257 118.961 34.6545C119.235 34.2834 119.372 33.766 119.372 33.0991C119.372 31.6673 118.855 30.9508 117.819 30.9508C117.249 30.9508 116.832 31.1074 116.565 31.4199C116.299 31.7321 116.165 32.2402 116.165 32.9464V33.0898C116.165 33.8525 116.293 34.3968 116.549 34.7225C116.805 35.0483 117.222 35.2112 117.8 35.2112ZM117.808 35.605C117.059 35.605 116.509 35.3246 116.165 34.7618H116.134L116.148 35.139C116.161 35.3596 116.165 35.6028 116.165 35.8657V37.7222H115.721V30.6417H116.099L116.183 31.3373H116.21C116.547 30.8106 117.081 30.548 117.819 30.548C118.478 30.548 118.979 30.7633 119.326 31.195C119.671 31.628 119.845 32.2559 119.845 33.0815C119.845 33.8814 119.663 34.5029 119.297 34.9442C118.934 35.3843 118.438 35.605 117.808 35.605ZM112.099 30.9415C111.63 30.9415 111.252 31.0962 110.967 31.4053C110.682 31.7156 110.517 32.1619 110.469 32.7444H113.486C113.486 32.1794 113.364 31.7374 113.119 31.4199C112.873 31.1013 112.534 30.9415 112.099 30.9415ZM112.229 35.605C111.52 35.605 110.967 35.3875 110.57 34.9514C110.174 34.5144 109.976 33.903 109.976 33.1166C109.976 32.3393 110.166 31.7167 110.55 31.2487C110.934 30.7806 111.45 30.548 112.099 30.548C112.675 30.548 113.127 30.7477 113.459 31.1477C113.792 31.5486 113.959 32.0929 113.959 32.7805V33.1392H110.443C110.449 33.8092 110.604 34.3205 110.911 34.6731C111.219 35.0257 111.657 35.2019 112.229 35.2019C112.507 35.2019 112.753 35.1823 112.964 35.143C113.175 35.105 113.443 35.0214 113.765 34.8927V35.2957C113.49 35.4154 113.237 35.4977 113.003 35.541C112.768 35.5843 112.512 35.605 112.229 35.605ZM105.057 33.1166V35.0936H106.709C107.134 35.0936 107.461 35.005 107.686 34.8257C107.913 34.6463 108.026 34.3824 108.026 34.036C108.026 33.7134 107.925 33.4795 107.725 33.334C107.525 33.1888 107.178 33.1166 106.682 33.1166H105.057ZM105.057 32.696H106.777C107.923 32.696 108.497 33.1455 108.497 34.0442C108.497 34.5082 108.336 34.869 108.016 35.1276C107.696 35.3865 107.238 35.5163 106.639 35.5163H104.613V30.6417H105.057V32.696ZM100.803 35.2112C101.303 35.2112 101.689 35.0257 101.964 34.6545C102.238 34.2834 102.375 33.766 102.375 33.0991C102.375 31.6673 101.856 30.9508 100.82 30.9508C100.252 30.9508 99.8346 31.1074 99.5661 31.4199C99.2997 31.7321 99.1675 32.2402 99.1675 32.9464V33.0898C99.1675 33.8525 99.2956 34.3968 99.5517 34.7225C99.8078 35.0483 100.225 35.2112 100.803 35.2112ZM100.811 35.605C100.06 35.605 99.5124 35.3246 99.1675 34.7618H99.1366L99.1491 35.139C99.1614 35.3596 99.1675 35.6028 99.1675 35.8657V37.7222H98.7236V30.6417H99.0994L99.1861 31.3373H99.213C99.5475 30.8106 100.084 30.548 100.82 30.548C101.478 30.548 101.982 30.7633 102.327 31.195C102.674 31.628 102.845 32.2559 102.845 33.0815C102.845 33.8814 102.664 34.5029 102.3 34.9442C101.937 35.3843 101.439 35.605 100.811 35.605ZM95.1016 30.9415C94.6328 30.9415 94.2549 31.0962 93.9698 31.4053C93.685 31.7156 93.5198 32.1619 93.4723 32.7444H96.4891C96.4891 32.1794 96.3673 31.7374 96.1216 31.4199C95.8759 31.1013 95.5374 30.9415 95.1016 30.9415ZM95.2316 35.605C94.5234 35.605 93.9698 35.3875 93.5733 34.9514C93.1768 34.5144 92.9787 33.903 92.9787 33.1166C92.9787 32.3393 93.1686 31.7167 93.5528 31.2487C93.9368 30.7806 94.4532 30.548 95.1016 30.548C95.6778 30.548 96.1299 30.7477 96.4625 31.1477C96.7949 31.5486 96.9622 32.0929 96.9622 32.7805V33.1392H93.4454C93.4515 33.8092 93.6065 34.3205 93.9142 34.6731C94.2219 35.0257 94.6596 35.2019 95.2316 35.2019C95.5105 35.2019 95.7562 35.1823 95.9668 35.143C96.1775 35.105 96.4458 35.0214 96.7681 34.8927V35.2957C96.4934 35.4154 96.2394 35.4977 96.006 35.541C95.7706 35.5843 95.5145 35.605 95.2316 35.605ZM91.8451 31.027H90.2177V35.5163H89.7778V31.027H88.1113V30.6417H91.8451V31.027ZM83.1577 30.6417V32.7805H86.257V30.6417H86.6969V35.5163H86.257V33.166H83.1577V35.5163H82.7136V30.6417H83.1577ZM77.2021 30.6417V34.166L77.1753 35.0854L80.0725 30.6417H80.665V35.5163H80.2376V32.0135L80.2563 31.0713L77.359 35.5163H76.7807V30.6417H77.2021ZM68.3881 30.6417V32.7805H71.4877V30.6417H71.9275V35.5163H71.4877V33.166H68.3881V35.5163H67.944V30.6417H68.3881ZM63.9544 29.9511C63.5085 29.9511 63.1686 29.8521 62.9354 29.6533C62.7019 29.4542 62.5658 29.1337 62.5264 28.6914H62.9219C62.9663 29.0204 63.0686 29.2532 63.2276 29.3883C63.3856 29.5243 63.6313 29.5923 63.9637 29.5923C64.2932 29.5923 64.5378 29.5222 64.6979 29.3811C64.858 29.2408 64.9559 29.0111 64.9921 28.6914H65.3875C65.3247 29.5315 64.8466 29.9511 63.9544 29.9511ZM62.4326 30.6417V34.166L62.4046 35.0854L65.3018 30.6417H65.8946V35.5163H65.468V32.0135L65.4867 31.0713L62.5895 35.5163H62.0103V30.6417H62.4326ZM57.8906 35.2019C58.411 35.2019 58.8219 35.0535 59.1232 34.7557C59.4237 34.4586 59.5745 34.0442 59.5745 33.5164V33.0361L58.7208 33.0722C58.035 33.1041 57.5468 33.2114 57.2545 33.3927C56.9623 33.5743 56.8168 33.8546 56.8168 34.238C56.8168 34.5433 56.9107 34.7804 57.0976 34.9484C57.2846 35.1173 57.5489 35.2019 57.8906 35.2019ZM59.687 35.5163L59.5745 34.7453H59.5383C59.2926 35.0586 59.0407 35.2803 58.7815 35.4112C58.5224 35.541 58.2169 35.605 57.8638 35.605C57.3846 35.605 57.012 35.4834 56.7445 35.238C56.4781 34.9927 56.3448 34.6535 56.3448 34.2194C56.3448 33.7442 56.5432 33.3752 56.9407 33.1124C57.3372 32.8485 57.9111 32.7104 58.6629 32.696L59.592 32.6682V32.3456C59.592 31.8816 59.4981 31.5332 59.3091 31.2962C59.1213 31.0601 58.8166 30.9415 58.3975 30.9415C57.9454 30.9415 57.4776 31.0673 56.9923 31.3187L56.8261 30.9332C57.362 30.6818 57.8917 30.5562 58.4161 30.5562C58.9519 30.5562 59.3524 30.6953 59.6168 30.9734C59.8821 31.2508 60.0143 31.6848 60.0143 32.2734V35.5163H59.687ZM53.0698 32.7444C53.9537 32.7444 54.3954 32.4414 54.3954 31.8343C54.3954 31.5446 54.2933 31.323 54.0898 31.1703C53.8864 31.0177 53.5952 30.9415 53.2184 30.9415C52.9788 30.9415 52.756 30.9704 52.5494 31.0251C52.3428 31.0795 52.1209 31.16 51.8843 31.2651L51.7181 30.8971C52.2396 30.6645 52.7456 30.548 53.236 30.548C53.7697 30.548 54.1736 30.6582 54.4491 30.8796C54.7248 31.1002 54.8623 31.4074 54.8623 31.7992C54.8623 32.364 54.572 32.7239 53.9907 32.8795V32.9063C54.3531 32.996 54.6164 33.1444 54.7817 33.3515C54.9458 33.5597 55.0285 33.8257 55.0285 34.1485C55.0285 34.5988 54.8631 34.9556 54.5318 35.2152C54.2015 35.4751 53.742 35.605 53.1554 35.605C52.8384 35.605 52.5483 35.5739 52.2861 35.5142C52.0249 35.4523 51.808 35.371 51.6375 35.2689V34.8257C51.9454 34.972 52.2127 35.0711 52.4369 35.1236C52.6619 35.1762 52.9014 35.2019 53.1554 35.2019C53.5984 35.2019 53.9444 35.108 54.1911 34.9216C54.4379 34.735 54.5618 34.4679 54.5618 34.1206C54.5618 33.7835 54.443 33.5339 54.2066 33.3722C53.9702 33.2114 53.6149 33.1309 53.1421 33.1309H52.4637V32.7444H53.0698ZM46.6382 30.6417V34.166L46.6114 35.0854L49.5075 30.6417H50.1002V35.5163H49.6737V32.0135L49.6923 31.0713L46.7953 35.5163H46.2159V30.6417H46.6382ZM43.6687 35.0936V31.0538H42.1504C42.0787 32.6711 41.6863 34.0174 40.9739 35.0936H43.6687ZM44.7643 37.1697H44.3244V35.5163H40.5873V37.1697H40.1475V35.0936H40.4706C40.8779 34.5226 41.1923 33.8607 41.4137 33.1083C41.6353 32.3547 41.7518 31.5332 41.7643 30.6417H44.1132V35.0936H44.7643V37.1697ZM150 21.1252C150 22.2065 149.624 23.0292 148.873 23.595C148.119 24.161 146.993 24.4434 145.496 24.4434C144.728 24.4434 144.073 24.3919 143.53 24.2887C142.989 24.1846 142.483 24.0322 142.01 23.831V21.4551C142.545 21.7066 143.148 21.9168 143.819 22.087C144.49 22.2561 145.079 22.3405 145.589 22.3405C146.636 22.3405 147.159 22.0395 147.159 21.4355C147.159 21.2096 147.088 21.0251 146.95 20.8849C146.812 20.7428 146.572 20.583 146.231 20.4036C145.893 20.2246 145.438 20.0156 144.873 19.7768C144.061 19.4371 143.464 19.1228 143.082 18.8337C142.702 18.5445 142.426 18.2131 142.252 17.839C142.079 17.4653 141.992 17.0045 141.992 16.4577C141.992 15.5212 142.355 14.7969 143.082 14.2847C143.809 13.7723 144.842 13.5162 146.176 13.5162C147.448 13.5162 148.685 13.7926 149.886 14.3455L149.019 16.4199C148.489 16.1938 147.995 16.0082 147.536 15.8638C147.076 15.719 146.607 15.6468 146.128 15.6468C145.279 15.6468 144.854 15.8763 144.854 16.335C144.854 16.5932 144.99 16.8157 145.265 17.0045C145.538 17.1932 146.138 17.4729 147.063 17.8436C147.888 18.177 148.493 18.4884 148.877 18.777C149.261 19.0666 149.544 19.3995 149.727 19.7768C149.909 20.1536 150 20.6025 150 21.1252ZM139.627 13.5162C140.018 13.5162 140.342 13.5445 140.6 13.6007L140.383 16.2972C140.15 16.2345 139.867 16.2031 139.534 16.2031C138.614 16.2031 137.899 16.4391 137.385 16.9101C136.873 17.3817 136.614 18.0421 136.614 18.8903V24.2558H133.734V13.7143H135.917L136.342 15.4866H136.482C136.811 14.8959 137.253 14.4198 137.81 14.0584C138.368 13.6967 138.973 13.5162 139.627 13.5162ZM123.937 18.9657C123.937 20.0094 124.109 20.7984 124.454 21.3325C124.797 21.8664 125.354 22.1343 126.129 22.1343C126.897 22.1343 127.45 21.8685 127.787 21.3365C128.123 20.8066 128.292 20.0156 128.292 18.9657C128.292 17.9224 128.121 17.14 127.783 16.6179C127.442 16.0963 126.884 15.8355 126.11 15.8355C125.342 15.8355 124.788 16.0948 124.447 16.6133C124.109 17.1318 123.937 17.9163 123.937 18.9657ZM131.239 18.9657C131.239 20.6818 130.785 22.0241 129.878 22.992C128.972 23.96 127.71 24.4434 126.091 24.4434C125.077 24.4434 124.183 24.2228 123.409 23.7795C122.634 23.3364 122.04 22.6992 121.625 21.8704C121.21 21.0397 121.001 20.0721 121.001 18.9657C121.001 17.2436 121.451 15.9046 122.351 14.9491C123.252 13.994 124.518 13.5162 126.147 13.5162C127.161 13.5162 128.055 13.7364 128.829 14.176C129.604 14.6161 130.199 15.248 130.616 16.0711C131.031 16.8947 131.239 17.8595 131.239 18.9657ZM118.504 24.2558H115.624V13.7143H118.504V24.2558ZM115.502 10.9892C115.502 10.0527 116.024 9.58427 117.069 9.58427C118.114 9.58427 118.637 10.0527 118.637 10.9892C118.637 11.4355 118.507 11.783 118.246 12.0309C117.984 12.2793 117.592 12.4035 117.069 12.4035C116.024 12.4035 115.502 11.9318 115.502 10.9892ZM112.619 13.5162C113.009 13.5162 113.334 13.5445 113.592 13.6007L113.375 16.2972C113.141 16.2345 112.859 16.2031 112.524 16.2031C111.605 16.2031 110.888 16.4391 110.376 16.9101C109.862 17.3817 109.606 18.0421 109.606 18.8903V24.2558H106.726V13.7143H108.906L109.332 15.4866H109.474C109.8 14.8959 110.244 14.4198 110.8 14.0584C111.357 13.6967 111.964 13.5162 112.619 13.5162ZM99.5538 15.5619C98.9446 15.5619 98.4654 15.7551 98.1187 16.1416C97.7738 16.5282 97.5754 17.0771 97.5238 17.7875H101.567C101.553 17.0771 101.369 16.5282 101.01 16.1416C100.65 15.7551 100.165 15.5619 99.5538 15.5619ZM99.9605 24.4434C98.261 24.4434 96.9332 23.9754 95.9751 23.0393C95.0189 22.1024 94.5399 20.7758 94.5399 19.0599C94.5399 17.2937 94.9819 15.9282 95.8677 14.9634C96.7516 13.9986 97.974 13.5162 99.5352 13.5162C101.028 13.5162 102.189 13.9404 103.021 14.7886C103.851 15.6375 104.268 16.8096 104.268 18.306V19.701H97.4578C97.4887 20.518 97.7323 21.157 98.1846 21.6147C98.6388 22.0745 99.2749 22.3034 100.093 22.3034C100.729 22.3034 101.33 22.2375 101.898 22.1056C102.463 21.9736 103.056 21.7634 103.671 21.4735V23.699C103.17 23.9507 102.631 24.1373 102.057 24.26C101.485 24.3826 100.787 24.4434 99.9605 24.4434ZM91.1202 22.1529C91.622 22.1529 92.227 22.0427 92.9333 21.8231V23.9629C92.2147 24.2836 91.3329 24.4434 90.2879 24.4434C89.1357 24.4434 88.2972 24.1527 87.7707 23.5713C87.2463 22.9899 86.9819 22.1178 86.9819 20.955V15.8731H85.6045V14.6567L87.1904 13.6951L88.0206 11.4701H89.8626V13.7143H92.8197V15.8731H89.8626V20.955C89.8626 21.3633 89.9781 21.6665 90.2073 21.8603C90.4365 22.056 90.7423 22.1529 91.1202 22.1529ZM83.5893 24.2558H80.7086V18.0982C80.7086 17.338 80.5743 16.7674 80.3036 16.387C80.0332 16.0065 79.6016 15.8165 79.0089 15.8165C78.2036 15.8165 77.6213 16.0855 77.262 16.6226C76.9025 17.16 76.723 18.0514 76.723 19.2961V24.2558H73.8427V13.7143H76.0436L76.4318 15.0624H76.5908C76.9129 14.5532 77.3548 14.1682 77.9186 13.9074C78.4823 13.6467 79.1226 13.5162 79.8411 13.5162C81.0678 13.5162 81.9991 13.8477 82.6352 14.511C83.2712 15.1737 83.5893 16.1309 83.5893 17.3817V24.2558ZM70.7048 24.2558H67.8243V13.7143H70.7048V24.2558ZM67.7025 10.9892C67.7025 10.0527 68.2248 9.58427 69.2699 9.58427C70.3147 9.58427 70.837 10.0527 70.837 10.9892C70.837 11.4355 70.707 11.783 70.4458 12.0309C70.1844 12.2793 69.7922 12.4035 69.2699 12.4035C68.2248 12.4035 67.7025 11.9318 67.7025 10.9892ZM60.3201 21.1252C60.3201 22.2065 59.9441 23.0292 59.1915 23.595C58.4389 24.161 57.3133 24.4434 55.8151 24.4434C55.0471 24.4434 54.3924 24.3919 53.8503 24.2887C53.3093 24.1846 52.8023 24.0322 52.3305 23.831V21.4551C52.8653 21.7066 53.4684 21.9168 54.1385 22.087C54.8094 22.2561 55.3992 22.3405 55.9092 22.3405C56.9551 22.3405 57.4776 22.0395 57.4776 21.4355C57.4776 21.2096 57.4085 21.0251 57.27 20.8849C57.1306 20.7428 56.8921 20.583 56.5514 20.4036C56.2116 20.2246 55.7585 20.0156 55.1915 19.7768C54.38 19.4371 53.7832 19.1228 53.4022 18.8337C53.0211 18.5445 52.7445 18.2131 52.5711 17.839C52.3975 17.4653 52.3119 17.0045 52.3119 16.4577C52.3119 15.5212 52.6754 14.7969 53.4022 14.2847C54.1292 13.7723 55.1607 13.5162 56.4956 13.5162C57.7667 13.5162 59.0035 13.7926 60.2063 14.3455L59.3381 16.4199C58.8083 16.1938 58.315 16.0082 57.8555 15.8638C57.3949 15.719 56.9261 15.6468 56.4482 15.6468C55.5984 15.6468 55.1729 15.8763 55.1729 16.335C55.1729 16.5932 55.3104 16.8157 55.584 17.0045C55.8576 17.1932 56.4573 17.4729 57.3825 17.8436C58.2076 18.177 58.8115 18.4884 59.1955 18.777C59.5798 19.0666 59.8635 19.3995 60.0464 19.7768C60.2281 20.1536 60.3201 20.6025 60.3201 21.1252ZM43.611 18.5228L44.867 16.92L47.8226 13.7143H51.0719L46.8789 18.2868L51.3269 24.2558H48.0023L44.9616 19.9841L43.7241 20.9736V24.2558H40.8438V9.58427H43.7241V16.1277L43.5733 18.5228H43.611Z" fill="white"/>
</svg>
