<svg width="150" height="45" viewBox="0 0 150 45" fill="none" xmlns="http://www.w3.org/2000/svg">
<path d="M12.0018 22.294L21.6805 11.5397L27.2404 17.6592V39.2264L12.0018 22.294ZM25.3789 41.295H2.63288V32.7044L10.1401 24.3626L25.3789 41.295ZM2.63288 28.5674V17.6592L14.9366 4.11825L19.8102 9.48167L2.63288 28.5674ZM15.0297 0.102322L14.9366 0.000114441L0.0391195 16.3961L0 16.4391V44.2205H29.8735V16.4391L15.0297 0.102322ZM130.826 37.8897C130.826 37.2243 130.368 36.8916 129.447 36.8916H127.857V39.0577H129.511C130.388 39.0577 130.826 38.67 130.826 37.8897ZM130.688 35.4508C130.688 35.1341 130.585 34.9092 130.382 34.7739C130.178 34.6383 129.872 34.5718 129.465 34.5718H127.857V36.4283H129.412C129.866 36.4283 130.192 36.3503 130.391 36.1942C130.589 36.0382 130.688 35.7903 130.688 35.4508ZM131.159 35.4106C131.159 35.7537 131.082 36.022 130.93 36.217C130.777 36.4109 130.529 36.5464 130.184 36.6233V36.6576C130.576 36.7081 130.859 36.8331 131.035 37.034C131.21 37.2358 131.297 37.525 131.297 37.9012C131.297 38.4221 131.142 38.8248 130.832 39.1059C130.523 39.3869 130.07 39.5281 129.474 39.5281H127.413V34.1029H129.484C130.04 34.1029 130.459 34.214 130.739 34.4365C131.018 34.6602 131.159 34.9849 131.159 35.4106ZM121.794 36.808C121.794 37.5525 121.941 38.1341 122.236 38.5518C122.531 38.9693 122.948 39.1782 123.487 39.1782C124.026 39.1782 124.443 38.9693 124.737 38.5518C125.032 38.1341 125.181 37.5525 125.181 36.808C125.181 36.0587 125.032 35.4783 124.733 35.0653C124.435 34.6534 124.016 34.4468 123.477 34.4468C122.938 34.4468 122.523 34.6522 122.232 35.0629C121.938 35.4736 121.794 36.0566 121.794 36.808ZM125.647 36.808C125.647 37.6926 125.453 38.3831 125.067 38.881C124.681 39.3789 124.148 39.6268 123.469 39.6268C123.041 39.6268 122.663 39.5121 122.337 39.2825C122.011 39.0532 121.761 38.7238 121.587 38.2948C121.414 37.8657 121.327 37.37 121.327 36.808C121.327 35.9233 121.519 35.2328 121.906 34.7394C122.292 34.2452 122.822 33.9985 123.495 33.9985C124.167 33.9985 124.693 34.2483 125.075 34.7485C125.455 35.2499 125.647 35.936 125.647 36.808ZM117.8 39.1886C118.3 39.1886 118.688 38.982 118.961 38.569C119.235 38.1559 119.372 37.58 119.372 36.8378C119.372 35.2443 118.855 34.4468 117.819 34.4468C117.249 34.4468 116.832 34.6212 116.565 34.9689C116.299 35.3164 116.165 35.882 116.165 36.6679V36.8275C116.165 37.6764 116.293 38.2821 116.549 38.6446C116.805 39.0072 117.222 39.1886 117.8 39.1886ZM117.808 39.6268C117.059 39.6268 116.509 39.3147 116.165 38.6883H116.134L116.148 39.1082C116.161 39.3537 116.165 39.6244 116.165 39.9169V41.9832H115.721V34.1029H116.099L116.183 34.8771H116.21C116.547 34.2908 117.081 33.9985 117.819 33.9985C118.478 33.9985 118.979 34.2382 119.326 34.7187C119.671 35.2006 119.845 35.8994 119.845 36.8183C119.845 37.7086 119.663 38.4003 119.297 38.8913C118.934 39.3812 118.438 39.6268 117.808 39.6268ZM112.099 34.4365C111.63 34.4365 111.252 34.6087 110.967 34.9527C110.682 35.2981 110.517 35.7948 110.469 36.4431H113.486C113.486 35.8143 113.364 35.3223 113.119 34.9689C112.873 34.6144 112.534 34.4365 112.099 34.4365ZM112.229 39.6268C111.52 39.6268 110.967 39.3848 110.57 38.8993C110.174 38.413 109.976 37.7325 109.976 36.8573C109.976 35.9922 110.166 35.2993 110.55 34.7784C110.934 34.2575 111.45 33.9985 112.099 33.9985C112.675 33.9985 113.127 34.2208 113.459 34.6661C113.792 35.1122 113.959 35.718 113.959 36.4832V36.8824H110.443C110.449 37.6282 110.604 38.1973 110.911 38.5897C111.219 38.982 111.657 39.1782 112.229 39.1782C112.507 39.1782 112.753 39.1564 112.964 39.1127C113.175 39.0704 113.443 38.9773 113.765 38.834V39.2825C113.49 39.4158 113.237 39.5074 113.003 39.5556C112.768 39.6037 112.512 39.6268 112.229 39.6268ZM105.057 36.8573V39.0577H106.709C107.134 39.0577 107.461 38.959 107.686 38.7595C107.913 38.5598 108.026 38.2661 108.026 37.8805C108.026 37.5215 107.925 37.2612 107.725 37.0993C107.525 36.9377 107.178 36.8573 106.682 36.8573H105.057ZM105.057 36.3893H106.777C107.923 36.3893 108.497 36.8895 108.497 37.8897C108.497 38.4061 108.336 38.8077 108.016 39.0955C107.696 39.3836 107.238 39.5281 106.639 39.5281H104.613V34.1029H105.057V36.3893ZM100.803 39.1886C101.303 39.1886 101.689 38.982 101.964 38.569C102.238 38.1559 102.375 37.58 102.375 36.8378C102.375 35.2443 101.856 34.4468 100.82 34.4468C100.252 34.4468 99.8346 34.6212 99.5661 34.9689C99.2997 35.3164 99.1675 35.882 99.1675 36.6679V36.8275C99.1675 37.6764 99.2956 38.2821 99.5517 38.6446C99.8078 39.0072 100.225 39.1886 100.803 39.1886ZM100.811 39.6268C100.06 39.6268 99.5124 39.3147 99.1675 38.6883H99.1366L99.1491 39.1082C99.1614 39.3537 99.1675 39.6244 99.1675 39.9169V41.9832H98.7236V34.1029H99.0994L99.1861 34.8771H99.213C99.5475 34.2908 100.084 33.9985 100.82 33.9985C101.478 33.9985 101.982 34.2382 102.327 34.7187C102.674 35.2006 102.845 35.8994 102.845 36.8183C102.845 37.7086 102.664 38.4003 102.3 38.8913C101.937 39.3812 101.439 39.6268 100.811 39.6268ZM95.1016 34.4365C94.6328 34.4365 94.2549 34.6087 93.9698 34.9527C93.685 35.2981 93.5198 35.7948 93.4723 36.4431H96.4891C96.4891 35.8143 96.3673 35.3223 96.1216 34.9689C95.8759 34.6144 95.5374 34.4365 95.1016 34.4365ZM95.2316 39.6268C94.5234 39.6268 93.9698 39.3848 93.5733 38.8993C93.1768 38.413 92.9787 37.7325 92.9787 36.8573C92.9787 35.9922 93.1686 35.2993 93.5528 34.7784C93.9368 34.2575 94.4532 33.9985 95.1016 33.9985C95.6778 33.9985 96.1299 34.2208 96.4625 34.6661C96.7949 35.1122 96.9622 35.718 96.9622 36.4832V36.8824H93.4454C93.4515 37.6282 93.6065 38.1973 93.9142 38.5897C94.2219 38.982 94.6596 39.1782 95.2316 39.1782C95.5105 39.1782 95.7562 39.1564 95.9668 39.1127C96.1775 39.0704 96.4458 38.9773 96.7681 38.834V39.2825C96.4934 39.4158 96.2394 39.5074 96.006 39.5556C95.7706 39.6037 95.5145 39.6268 95.2316 39.6268ZM91.8451 34.5317H90.2177V39.5281H89.7778V34.5317H88.1113V34.1029H91.8451V34.5317ZM83.1577 34.1029V36.4832H86.257V34.1029H86.6969V39.5281H86.257V36.9123H83.1577V39.5281H82.7136V34.1029H83.1577ZM77.2021 34.1029V38.0253L77.1753 39.0485L80.0725 34.1029H80.665V39.5281H80.2376V35.6296L80.2563 34.581L77.359 39.5281H76.7807V34.1029H77.2021ZM68.3881 34.1029V36.4832H71.4877V34.1029H71.9275V39.5281H71.4877V36.9123H68.3881V39.5281H67.944V34.1029H68.3881ZM63.9544 33.3343C63.5085 33.3343 63.1686 33.2241 62.9354 33.0028C62.7019 32.7812 62.5658 32.4245 62.5264 31.9323H62.9219C62.9663 32.2984 63.0686 32.5575 63.2276 32.7079C63.3856 32.8592 63.6313 32.9349 63.9637 32.9349C64.2932 32.9349 64.5378 32.8569 64.6979 32.6999C64.858 32.5437 64.9559 32.288 64.9921 31.9323H65.3875C65.3247 32.8672 64.8466 33.3343 63.9544 33.3343ZM62.4326 34.1029V38.0253L62.4046 39.0485L65.3018 34.1029H65.8946V39.5281H65.468V35.6296L65.4867 34.581L62.5895 39.5281H62.0103V34.1029H62.4326ZM57.8906 39.1782C58.411 39.1782 58.8219 39.013 59.1232 38.6815C59.4237 38.3509 59.5745 37.8897 59.5745 37.3023V36.7678L58.7208 36.808C58.035 36.8434 57.5468 36.9628 57.2545 37.1646C56.9623 37.3667 56.8168 37.6787 56.8168 38.1054C56.8168 38.4452 56.9107 38.709 57.0976 38.896C57.2846 39.084 57.5489 39.1782 57.8906 39.1782ZM59.687 39.5281L59.5745 38.67H59.5383C59.2926 39.0187 59.0407 39.2654 58.7815 39.4111C58.5224 39.5556 58.2169 39.6268 57.8638 39.6268C57.3846 39.6268 57.012 39.4914 56.7445 39.2184C56.4781 38.9454 56.3448 38.5678 56.3448 38.0847C56.3448 37.5558 56.5432 37.1451 56.9407 36.8526C57.3372 36.5589 57.9111 36.4052 58.6629 36.3893L59.592 36.3582V35.9992C59.592 35.4828 59.4981 35.0951 59.3091 34.8312C59.1213 34.5686 58.8166 34.4365 58.3975 34.4365C57.9454 34.4365 57.4776 34.5765 56.9923 34.8564L56.8261 34.4273C57.362 34.1475 57.8917 34.0077 58.4161 34.0077C58.9519 34.0077 59.3524 34.1625 59.6168 34.472C59.8821 34.7807 60.0143 35.2638 60.0143 35.9189V39.5281H59.687ZM53.0698 36.4431C53.9537 36.4431 54.3954 36.1059 54.3954 35.4301C54.3954 35.1078 54.2933 34.8611 54.0898 34.6912C53.8864 34.5213 53.5952 34.4365 53.2184 34.4365C52.9788 34.4365 52.756 34.4687 52.5494 34.5295C52.3428 34.5902 52.1209 34.6797 51.8843 34.7967L51.7181 34.3872C52.2396 34.1282 52.7456 33.9985 53.236 33.9985C53.7697 33.9985 54.1736 34.1212 54.4491 34.3677C54.7248 34.6132 54.8623 34.9551 54.8623 35.3911C54.8623 36.0197 54.572 36.4203 53.9907 36.5934V36.6233C54.3531 36.7231 54.6164 36.8883 54.7817 37.1188C54.9458 37.3505 55.0285 37.6465 55.0285 38.0058C55.0285 38.5069 54.8631 38.904 54.5318 39.193C54.2015 39.4823 53.742 39.6268 53.1554 39.6268C52.8384 39.6268 52.5483 39.5922 52.2861 39.5257C52.0249 39.4569 51.808 39.3664 51.6375 39.2527V38.7595C51.9454 38.9224 52.2127 39.0325 52.4369 39.0911C52.6619 39.1496 52.9014 39.1782 53.1554 39.1782C53.5984 39.1782 53.9444 39.0737 54.1911 38.8662C54.4379 38.6585 54.5618 38.3613 54.5618 37.9748C54.5618 37.5995 54.443 37.3218 54.2066 37.1418C53.9702 36.9628 53.6149 36.8733 53.1421 36.8733H52.4637V36.4431H53.0698ZM46.6382 34.1029V38.0253L46.6114 39.0485L49.5075 34.1029H50.1002V39.5281H49.6737V35.6296L49.6923 34.581L46.7953 39.5281H46.2159V34.1029H46.6382ZM43.6687 39.0577V34.5615H42.1504C42.0787 36.3615 41.6863 37.8599 40.9739 39.0577H43.6687ZM44.7643 41.3683H44.3244V39.5281H40.5873V41.3683H40.1475V39.0577H40.4706C40.8779 38.4221 41.1923 37.6855 41.4137 36.8481C41.6353 36.0093 41.7518 35.0951 41.7643 34.1029H44.1132V39.0577H44.7643V41.3683ZM150 23.5114C150 24.7148 149.624 25.6305 148.873 26.2601C148.119 26.8901 146.993 27.2044 145.496 27.2044C144.728 27.2044 144.073 27.1471 143.53 27.0322C142.989 26.9164 142.483 26.7467 142.01 26.5228V23.8786C142.545 24.1584 143.148 24.3925 143.819 24.5818C144.49 24.77 145.079 24.864 145.589 24.864C146.636 24.864 147.159 24.529 147.159 23.8567C147.159 23.6053 147.088 23.4 146.95 23.244C146.812 23.0858 146.572 22.908 146.231 22.7083C145.893 22.509 145.438 22.2764 144.873 22.0107C144.061 21.6326 143.464 21.2828 143.082 20.9611C142.702 20.6392 142.426 20.2703 142.252 19.854C142.079 19.4381 141.992 18.9252 141.992 18.3166C141.992 17.2743 142.355 16.4682 143.082 15.8982C143.809 15.3279 144.842 15.0429 146.176 15.0429C147.448 15.0429 148.685 15.3505 149.886 15.9659L149.019 18.2746C148.489 18.0229 147.995 17.8164 147.536 17.6557C147.076 17.4945 146.607 17.4141 146.128 17.4141C145.279 17.4141 144.854 17.6695 144.854 18.1801C144.854 18.4675 144.99 18.7151 145.265 18.9252C145.538 19.1352 146.138 19.4466 147.063 19.8591C147.888 20.2301 148.493 20.5767 148.877 20.8979C149.261 21.2203 149.544 21.5908 149.727 22.0107C149.909 22.4301 150 22.9296 150 23.5114ZM139.627 15.0429C140.018 15.0429 140.342 15.0744 140.6 15.1369L140.383 18.1381C140.15 18.0683 139.867 18.0333 139.534 18.0333C138.614 18.0333 137.899 18.296 137.385 18.8201C136.873 19.345 136.614 20.08 136.614 21.0241V26.9956H133.734V15.2633H135.917L136.342 17.2358H136.482C136.811 16.5784 137.253 16.0486 137.81 15.6463C138.368 15.2438 138.973 15.0429 139.627 15.0429ZM123.937 21.1079C123.937 22.2696 124.109 23.1476 124.454 23.7421C124.797 24.3363 125.354 24.6345 126.129 24.6345C126.897 24.6345 127.45 24.3386 127.787 23.7465C128.123 23.1568 128.292 22.2764 128.292 21.1079C128.292 19.9468 128.121 19.076 127.783 18.495C127.442 17.9144 126.884 17.6242 126.11 17.6242C125.342 17.6242 124.788 17.9127 124.447 18.4898C124.109 19.0669 123.937 19.94 123.937 21.1079ZM131.239 21.1079C131.239 23.0179 130.785 24.5118 129.878 25.5891C128.972 26.6664 127.71 27.2044 126.091 27.2044C125.077 27.2044 124.183 26.9589 123.409 26.4655C122.634 25.9723 122.04 25.2632 121.625 24.3408C121.21 23.4162 121.001 22.3394 121.001 21.1079C121.001 19.1914 121.451 17.701 122.351 16.6376C123.252 15.5746 124.518 15.0429 126.147 15.0429C127.161 15.0429 128.055 15.288 128.829 15.7772C129.604 16.2671 130.199 16.9703 130.616 17.8864C131.031 18.803 131.239 19.8768 131.239 21.1079ZM118.504 26.9956H115.624V15.2633H118.504V26.9956ZM115.502 12.2305C115.502 11.1882 116.024 10.6668 117.069 10.6668C118.114 10.6668 118.637 11.1882 118.637 12.2305C118.637 12.7272 118.507 13.1139 118.246 13.3898C117.984 13.6663 117.592 13.8045 117.069 13.8045C116.024 13.8045 115.502 13.2796 115.502 12.2305ZM112.619 15.0429C113.009 15.0429 113.334 15.0744 113.592 15.1369L113.375 18.1381C113.141 18.0683 112.859 18.0333 112.524 18.0333C111.605 18.0333 110.888 18.296 110.376 18.8201C109.862 19.345 109.606 20.08 109.606 21.0241V26.9956H106.726V15.2633H108.906L109.332 17.2358H109.474C109.8 16.5784 110.244 16.0486 110.8 15.6463C111.357 15.2438 111.964 15.0429 112.619 15.0429ZM99.5538 17.3197C98.9446 17.3197 98.4654 17.5347 98.1187 17.9649C97.7738 18.3951 97.5754 19.006 97.5238 19.7966H101.567C101.553 19.006 101.369 18.3951 101.01 17.9649C100.65 17.5347 100.165 17.3197 99.5538 17.3197ZM99.9605 27.2044C98.261 27.2044 96.9332 26.6835 95.9751 25.6417C95.0189 24.599 94.5399 23.1225 94.5399 21.2127C94.5399 19.2471 94.9819 17.7273 95.8677 16.6536C96.7516 15.5798 97.974 15.0429 99.5352 15.0429C101.028 15.0429 102.189 15.515 103.021 16.459C103.851 17.4038 104.268 18.7083 104.268 20.3737V21.9263H97.4578C97.4887 22.8356 97.7323 23.5468 98.1846 24.0562C98.6388 24.568 99.2749 24.8227 100.093 24.8227C100.729 24.8227 101.33 24.7494 101.898 24.6025C102.463 24.4557 103.056 24.2216 103.671 23.899V26.376C103.17 26.656 102.631 26.8638 102.057 27.0003C101.485 27.1368 100.787 27.2044 99.9605 27.2044ZM91.1202 24.6551C91.622 24.6551 92.227 24.5325 92.9333 24.2881V26.6697C92.2147 27.0266 91.3329 27.2044 90.2879 27.2044C89.1357 27.2044 88.2972 26.8809 87.7707 26.2338C87.2463 25.5868 86.9819 24.6161 86.9819 23.322V17.666H85.6045V16.3122L87.1904 15.2419L88.0206 12.7657H89.8626V15.2633H92.8197V17.666H89.8626V23.322C89.8626 23.7764 89.9781 24.1138 90.2073 24.3295C90.4365 24.5473 90.7423 24.6551 91.1202 24.6551ZM83.5893 26.9956H80.7086V20.1425C80.7086 19.2964 80.5743 18.6613 80.3036 18.2379C80.0332 17.8145 79.6016 17.6031 79.0089 17.6031C78.2036 17.6031 77.6213 17.9024 77.262 18.5001C76.9025 19.0983 76.723 20.0903 76.723 21.4757V26.9956H73.8427V15.2633H76.0436L76.4318 16.7638H76.5908C76.9129 16.1971 77.3548 15.7685 77.9186 15.4783C78.4823 15.1881 79.1226 15.0429 79.8411 15.0429C81.0678 15.0429 81.9991 15.4118 82.6352 16.1501C83.2712 16.8876 83.5893 17.9529 83.5893 19.345V26.9956ZM70.7048 26.9956H67.8243V15.2633H70.7048V26.9956ZM67.7025 12.2305C67.7025 11.1882 68.2248 10.6668 69.2699 10.6668C70.3147 10.6668 70.837 11.1882 70.837 12.2305C70.837 12.7272 70.707 13.1139 70.4458 13.3898C70.1844 13.6663 69.7922 13.8045 69.2699 13.8045C68.2248 13.8045 67.7025 13.2796 67.7025 12.2305ZM60.3201 23.5114C60.3201 24.7148 59.9441 25.6305 59.1915 26.2601C58.4389 26.8901 57.3133 27.2044 55.8151 27.2044C55.0471 27.2044 54.3924 27.1471 53.8503 27.0322C53.3093 26.9164 52.8023 26.7467 52.3305 26.5228V23.8786C52.8653 24.1584 53.4684 24.3925 54.1385 24.5818C54.8094 24.77 55.3992 24.864 55.9092 24.864C56.9551 24.864 57.4776 24.529 57.4776 23.8567C57.4776 23.6053 57.4085 23.4 57.27 23.244C57.1306 23.0858 56.8921 22.908 56.5514 22.7083C56.2116 22.509 55.7585 22.2764 55.1915 22.0107C54.38 21.6326 53.7832 21.2828 53.4022 20.9611C53.0211 20.6392 52.7445 20.2703 52.5711 19.854C52.3975 19.4381 52.3119 18.9252 52.3119 18.3166C52.3119 17.2743 52.6754 16.4682 53.4022 15.8982C54.1292 15.3279 55.1607 15.0429 56.4956 15.0429C57.7667 15.0429 59.0035 15.3505 60.2063 15.9659L59.3381 18.2746C58.8083 18.0229 58.315 17.8164 57.8555 17.6557C57.3949 17.4945 56.9261 17.4141 56.4482 17.4141C55.5984 17.4141 55.1729 17.6695 55.1729 18.1801C55.1729 18.4675 55.3104 18.7151 55.584 18.9252C55.8576 19.1352 56.4573 19.4466 57.3825 19.8591C58.2076 20.2301 58.8115 20.5767 59.1955 20.8979C59.5798 21.2203 59.8635 21.5908 60.0464 22.0107C60.2281 22.4301 60.3201 22.9296 60.3201 23.5114ZM43.611 20.615L44.867 18.8312L47.8226 15.2633H51.0719L46.8789 20.3523L51.3269 26.9956H48.0023L44.9616 22.2414L43.7241 23.3427V26.9956H40.8438V10.6668H43.7241V17.9494L43.5733 20.615H43.611Z" fill="white"/>
</svg>
